# xmcd
#
# Track frame offsets:
#	150
#	12846
#	26484
#	40385
#	55683
#	67701
#	83412
#	95965
#	111414
#	122576
#	138397
#	152214
#	165204
#	178202
#	196895
#	212232
#	228286
#	242602
#	257822
#	271016
#	285299
#	302307
#	315477
#	330095
#
# Disc length: 4594 seconds
#
# Revision: 0
# Processed by: cddbd v1.5.2PL0 Copyright (c) Steve Scherf et al.
# Submitted via: dBpowerAMP V4.0
#
DISCID=3011f018
DTITLE=Laluna e Vinicius - Laluna e Vinicius
DYEAR=2011
DGENRE=Country
TTITLE0=Fala parceiro
TTITLE1=Quer beber, quer pular!
TTITLE2=Parafuso
TTITLE3=Namora comigo
TTITLE4=Não demora
TTITLE5=Me liga, me chama
TTITLE6=Santinho ou cachorrão
TTITLE7=Os cachaceiros
TTITLE8=De beber pinga nois não para
TTITLE9=De outros carnavais
TTITLE10=Interrogação e fim
TTITLE11=Para
TTITLE12=Magoou
TTITLE13=Pecado de amor
TTITLE14=O vento
TTITLE15=Cadeado
TTITLE16=Bem feito pra você
TTITLE17=Não seja tesoura
TTITLE18=Eu vou pegar você de jeito
TTITLE19=Apaixonite aguda
TTITLE20=A ferro e fogo
TTITLE21=Não choro mais
TTITLE22=Se liga!
TTITLE23=100% Sertanejo
EXTD=
EXTT0=
EXTT1=
EXTT2=
EXTT3=
EXTT4=
EXTT5=
EXTT6=
EXTT7=
EXTT8=
EXTT9=
EXTT10=
EXTT11=
EXTT12=
EXTT13=
EXTT14=
EXTT15=
EXTT16=
EXTT17=
EXTT18=
EXTT19=
EXTT20=
EXTT21=
EXTT22=
EXTT23=
PLAYORDER=
